<svg width="97" height="97" viewBox="0 0 97 97" fill="none" xmlns="http://www.w3.org/2000/svg">
<rect width="97" height="97" rx="24" fill="#FE3403"/>
<path opacity="0.4" d="M67.9999 34.42V45.58C67.9999 53.78 65.4999 56.28 57.2999 56.28H43.8199V50.24C43.8199 49.48 43.1799 48.84 42.4199 48.84V31.16C43.1799 31.16 43.8199 30.52 43.8199 29.76V23.72H57.2999C65.4999 23.72 67.9999 26.22 67.9999 34.42Z" fill="white"/>
<path d="M60.9399 39.8C61.2799 39.48 61.3999 38.98 61.2599 38.54C61.1199 38.08 60.7399 37.76 60.2599 37.7L57.6999 37.32C57.5999 37.3 57.5199 37.24 57.4799 37.16L56.3399 34.84C56.1399 34.42 55.6999 34.16 55.2399 34.16C54.7599 34.16 54.3399 34.42 54.1199 34.84L52.9799 37.16C52.9399 37.26 52.8399 37.32 52.7399 37.32L50.1799 37.7C49.7199 37.76 49.3199 38.1 49.1799 38.54C49.0399 39 49.1599 39.48 49.4999 39.8L51.3599 41.6C51.4399 41.66 51.4599 41.78 51.4399 41.88L50.9999 44.42C50.9199 44.88 51.0999 45.36 51.4999 45.62C51.7199 45.78 51.9599 45.86 52.2199 45.86C52.4199 45.86 52.6199 45.82 52.7999 45.72L55.0999 44.52C55.1799 44.48 55.2999 44.48 55.3799 44.52L57.6799 45.72C58.0999 45.94 58.5999 45.9 58.9799 45.62C59.3599 45.34 59.5599 44.88 59.4799 44.4L59.0399 41.86C59.0199 41.76 59.0599 41.66 59.1199 41.58L60.9399 39.8Z" fill="white"/>
<path d="M42.42 31.16V48.84C41.66 48.84 41.02 49.48 41.02 50.24V56.28H38.7C30.8 56.28 28.2 53.92 28.02 46.56C28 46.18 28.16 45.82 28.42 45.56C28.68 45.28 29.06 45.14 29.42 45.14C32.22 45.14 34.52 42.84 34.52 40.02C34.52 37.2 32.22 34.88 29.42 34.88C29.02 34.88 28.68 34.74 28.42 34.46C28.16 34.2 28 33.82 28.02 33.46C28.2 26.08 30.8 23.72 38.7 23.72H41.02V29.76C41.02 30.54 41.66 31.16 42.42 31.16Z" fill="white"/>
<path d="M24.6896 69.5938V68.2695H31.6505V69.5938H28.9552V77H27.3908V69.5938H24.6896ZM32.2309 77V70.4492H33.7719V77H32.2309ZM33.0043 69.5293C32.7582 69.5293 32.5473 69.4473 32.3715 69.2832C32.1957 69.1191 32.1078 68.9219 32.1078 68.6914C32.1078 68.457 32.1957 68.2578 32.3715 68.0938C32.5473 67.9297 32.7582 67.8477 33.0043 67.8477C33.2465 67.8477 33.4555 67.9297 33.6313 68.0938C33.807 68.2578 33.8949 68.4551 33.8949 68.6855C33.8949 68.9199 33.807 69.1191 33.6313 69.2832C33.4555 69.4473 33.2465 69.5293 33.0043 69.5293ZM35.9342 70.4492L37.2526 72.875L38.5944 70.4492H40.2291L38.2604 73.7305L40.2643 77H38.6413L37.2526 74.6445L35.8873 77H34.2526L36.2389 73.7305L34.2995 70.4492H35.9342ZM39.9423 69.5938V68.2695H46.9032V69.5938H44.2079V77H42.6434V69.5938H39.9423ZM48.4796 77.1348C48.0616 77.1348 47.6866 77.0605 47.3546 76.9121C47.0226 76.7598 46.7609 76.5371 46.5695 76.2441C46.378 75.9512 46.2823 75.5898 46.2823 75.1602C46.2823 74.793 46.3507 74.4883 46.4874 74.2461C46.6241 74.0039 46.8097 73.8105 47.0441 73.666C47.2823 73.5215 47.5499 73.4121 47.8468 73.3379C48.1437 73.2598 48.4503 73.2051 48.7667 73.1738C49.1534 73.1309 49.4659 73.0938 49.7042 73.0625C49.9425 73.0312 50.1144 72.9805 50.2198 72.9102C50.3292 72.8398 50.3839 72.7305 50.3839 72.582V72.5527C50.3839 72.2363 50.2902 71.9902 50.1027 71.8145C49.9152 71.6387 49.6417 71.5508 49.2823 71.5508C48.9034 71.5508 48.6027 71.6328 48.38 71.7969C48.1613 71.9609 48.0128 72.1543 47.9347 72.377L46.4991 72.1719C46.6124 71.7734 46.7999 71.4414 47.0616 71.1758C47.3234 70.9062 47.6417 70.7051 48.0167 70.5723C48.3956 70.4355 48.8136 70.3672 49.2706 70.3672C49.5831 70.3672 49.8956 70.4043 50.2081 70.4785C50.5206 70.5488 50.8077 70.6699 51.0695 70.8418C51.3312 71.0137 51.5402 71.2441 51.6964 71.5332C51.8527 71.8223 51.9308 72.1836 51.9308 72.6172V77H50.4484V76.0977H50.4015C50.3077 76.2773 50.1749 76.4473 50.003 76.6074C49.8351 76.7637 49.6241 76.8906 49.3702 76.9883C49.1202 77.0859 48.8234 77.1348 48.4796 77.1348ZM48.8722 75.998C49.1847 75.998 49.4542 75.9375 49.6808 75.8164C49.9073 75.6914 50.0831 75.5273 50.2081 75.3242C50.3331 75.1172 50.3956 74.8926 50.3956 74.6504V73.8828C50.3448 73.9219 50.2628 73.959 50.1495 73.9941C50.0363 74.0254 49.9073 74.0547 49.7628 74.082C49.6183 74.1094 49.4757 74.1328 49.3351 74.1523C49.1984 74.1719 49.0792 74.1875 48.9777 74.1992C48.7472 74.2305 48.5402 74.2832 48.3566 74.3574C48.1769 74.4277 48.0343 74.5254 47.9288 74.6504C47.8234 74.7754 47.7706 74.9375 47.7706 75.1367C47.7706 75.4219 47.8741 75.6367 48.0812 75.7812C48.2882 75.9258 48.5519 75.998 48.8722 75.998ZM54.3744 73.168V77H52.8334V70.4492H54.3451V71.5684H54.4212C54.5697 71.2012 54.8021 70.9102 55.1185 70.6953C55.4388 70.4766 55.8451 70.3672 56.3373 70.3672C56.7904 70.3672 57.1849 70.4629 57.5209 70.6543C57.8568 70.8457 58.1166 71.127 58.3002 71.498C58.4877 71.8652 58.5814 72.3105 58.5814 72.834V77H57.0404V73.0742C57.0404 72.6367 56.9271 72.2949 56.7005 72.0488C56.474 71.7988 56.1615 71.6738 55.763 71.6738C55.4935 71.6738 55.2533 71.7324 55.0423 71.8496C54.8353 71.9668 54.6712 72.1367 54.5502 72.3594C54.433 72.5781 54.3744 72.8477 54.3744 73.168ZM62.3199 79.5898C61.4879 79.5898 60.8336 79.4277 60.357 79.1035C59.8805 78.7832 59.5738 78.3945 59.4371 77.9375L60.8199 77.5977C60.8824 77.7266 60.9742 77.8535 61.0953 77.9785C61.2164 78.1074 61.3785 78.2129 61.5816 78.2949C61.7848 78.3809 62.0406 78.4238 62.3492 78.4238C62.7867 78.4238 63.148 78.3164 63.4332 78.1016C63.7223 77.8906 63.8668 77.5449 63.8668 77.0645V75.8281H63.7789C63.7047 75.9844 63.5914 76.1465 63.4391 76.3145C63.2867 76.4785 63.0855 76.6191 62.8355 76.7363C62.5895 76.8496 62.277 76.9062 61.898 76.9062C61.398 76.9062 60.943 76.7871 60.5328 76.5488C60.1266 76.3105 59.8023 75.9551 59.5602 75.4824C59.3219 75.0098 59.2027 74.418 59.2027 73.707C59.2027 72.9883 59.3219 72.3809 59.5602 71.8848C59.8023 71.3887 60.1285 71.0117 60.5387 70.7539C60.9488 70.4961 61.4059 70.3672 61.9098 70.3672C62.2926 70.3672 62.609 70.4316 62.859 70.5605C63.109 70.6895 63.3082 70.8457 63.4566 71.0293C63.6051 71.209 63.7203 71.377 63.8023 71.5332H63.8844V70.4492H65.3902V77.1055C65.3902 77.6641 65.2574 78.127 64.9918 78.4941C64.7262 78.8613 64.3609 79.1348 63.8961 79.3145C63.4352 79.498 62.9098 79.5898 62.3199 79.5898ZM62.3316 75.6934C62.8238 75.6934 63.2027 75.5176 63.4684 75.166C63.7379 74.8105 63.8727 74.3203 63.8727 73.6953C63.8727 73.2812 63.8141 72.9199 63.6969 72.6113C63.5797 72.3027 63.4059 72.0625 63.1754 71.8906C62.9449 71.7188 62.6637 71.6328 62.3316 71.6328C61.9879 71.6328 61.7008 71.7227 61.4703 71.9023C61.2398 72.082 61.066 72.3281 60.9488 72.6406C60.8355 72.9492 60.7789 73.3008 60.7789 73.6953C60.7789 74.0938 60.8375 74.4434 60.9547 74.7441C61.0719 75.0449 61.2457 75.2793 61.4762 75.4473C61.7105 75.6113 61.9957 75.6934 62.3316 75.6934ZM69.1405 77.1289C68.4998 77.1289 67.9452 76.9883 67.4764 76.707C67.0077 76.4258 66.6444 76.0312 66.3866 75.5234C66.1327 75.0156 66.0057 74.4258 66.0057 73.7539C66.0057 73.0781 66.1327 72.4863 66.3866 71.9785C66.6444 71.4668 67.0077 71.0703 67.4764 70.7891C67.9452 70.5078 68.4998 70.3672 69.1405 70.3672C69.7811 70.3672 70.3358 70.5078 70.8045 70.7891C71.2733 71.0703 71.6366 71.4668 71.8944 71.9785C72.1522 72.4863 72.2811 73.0781 72.2811 73.7539C72.2811 74.4258 72.1522 75.0156 71.8944 75.5234C71.6366 76.0312 71.2733 76.4258 70.8045 76.707C70.3358 76.9883 69.7811 77.1289 69.1405 77.1289ZM69.1405 75.8867C69.4959 75.8867 69.7889 75.793 70.0194 75.6055C70.2498 75.4141 70.4217 75.1562 70.535 74.832C70.6522 74.5078 70.7108 74.1484 70.7108 73.7539C70.7108 73.3516 70.6522 72.9883 70.535 72.6641C70.4217 72.3398 70.2498 72.084 70.0194 71.8965C69.7889 71.7051 69.4959 71.6094 69.1405 71.6094C68.7928 71.6094 68.5018 71.7051 68.2674 71.8965C68.033 72.084 67.8573 72.3398 67.7401 72.6641C67.6268 72.9883 67.5702 73.3516 67.5702 73.7539C67.5702 74.1484 67.6268 74.5078 67.7401 74.832C67.8573 75.1562 68.033 75.4141 68.2674 75.6055C68.5018 75.793 68.7928 75.8867 69.1405 75.8867Z" fill="white"/>
</svg>
